<svg width="24" height="25" viewBox="0 0 24 25" fill="none" xmlns="http://www.w3.org/2000/svg">
<g clip-path="url(#clip0_748_5)">
<path d="M17.94 18.5276C16.2306 19.8306 14.1491 20.5525 12 20.5876C5 20.5876 1 12.5876 1 12.5876C2.24389 10.2695 3.96914 8.24423 6.06 6.64763M9.9 4.82763C10.5883 4.66651 11.2931 4.58596 12 4.58763C19 4.58763 23 12.5876 23 12.5876C22.393 13.7232 21.6691 14.7924 20.84 15.7776M14.12 14.7076C13.8454 15.0024 13.5141 15.2388 13.1462 15.4027C12.7782 15.5667 12.3809 15.6549 11.9781 15.662C11.5753 15.6691 11.1752 15.595 10.8016 15.4441C10.4281 15.2932 10.0887 15.0687 9.80385 14.7838C9.51897 14.4989 9.29439 14.1596 9.14351 13.786C8.99262 13.4125 8.91853 13.0123 8.92563 12.6095C8.93274 12.2067 9.02091 11.8095 9.18488 11.4415C9.34884 11.0735 9.58525 10.7423 9.88 10.4676" stroke="black" stroke-width="2" stroke-linecap="round" stroke-linejoin="round"/>
<path d="M1 1.58763L23 23.5876" stroke="black" stroke-width="2" stroke-linecap="round" stroke-linejoin="round"/>
</g>
<defs>
<clipPath id="clip0_748_5">
<rect width="24" height="24" fill="white" transform="translate(0 0.587631)"/>
</clipPath>
</defs>
</svg>
